<svg width="111" height="28" viewBox="0 0 111 28" fill="none" xmlns="http://www.w3.org/2000/svg">
<g clip-path="url(#clip0_3061_432)">
<path d="M24.8581 6.97667L21.3556 18.634L18.8931 26.8252C18.7908 27.1629 18.5833 27.4585 18.3013 27.6686C18.0193 27.8786 17.6777 27.9919 17.3268 27.9918H17.2758C17.4224 27.9919 17.567 27.9575 17.6979 27.8913C17.8289 27.8251 17.9427 27.729 18.0301 27.6106C18.1176 27.4922 18.1763 27.3549 18.2015 27.2096C18.2267 27.0643 18.2178 26.915 18.1755 26.7738L15.0382 16.3298L17.3245 8.71966C17.4767 8.21377 17.7865 7.77055 18.2082 7.45544C18.6299 7.14032 19.1412 6.97 19.6664 6.96966H24.8569L24.8581 6.97667Z" fill="#2C8CFF"/>
<path d="M18.1766 26.782L15.0394 16.3392L12.7508 8.72899C12.5986 8.22311 12.2888 7.77989 11.8671 7.46477C11.4453 7.14965 10.9341 6.97934 10.4089 6.97899H1.52112C1.28421 6.97911 1.0506 7.03494 0.838948 7.14206C0.627292 7.24917 0.443454 7.4046 0.3021 7.59592C0.160745 7.78724 0.06579 8.00917 0.0248175 8.24398C-0.016155 8.47879 -0.00201255 8.71999 0.0661162 8.94833L4.76157 24.5735C5.05984 25.5649 5.66709 26.4335 6.49362 27.051C7.32015 27.6684 8.32213 28.002 9.35152 28.0023H17.2805C17.427 28.002 17.5714 27.9671 17.7022 27.9006C17.833 27.834 17.9464 27.7376 18.0335 27.619C18.1206 27.5004 18.1789 27.3629 18.2038 27.2176C18.2286 27.0722 18.2193 26.9231 18.1766 26.782ZM7.52435 12.4052C7.20252 12.5907 6.83115 12.6703 6.46212 12.6331C6.0931 12.5958 5.74487 12.4435 5.46609 12.1973C5.18731 11.9512 4.99191 11.6235 4.90721 11.2602C4.82251 10.8968 4.85273 10.5159 4.99365 10.1707C5.13458 9.8255 5.37917 9.53321 5.69323 9.3347C6.00729 9.13619 6.37513 9.04137 6.74536 9.06351C7.11558 9.08564 7.46969 9.22362 7.75818 9.45816C8.04668 9.6927 8.25515 10.0121 8.35446 10.3717C8.50502 10.7528 8.50262 11.1778 8.34776 11.5572C8.19289 11.9366 7.89767 12.2406 7.52435 12.4052Z" fill="#27CCFF"/>
<path d="M69.8521 5.15434C70.7897 5.13415 71.724 5.27258 72.616 5.56383V0.559997C71.1201 0.139102 69.5694 -0.0505114 68.0168 -0.00233886C67.0719 -0.0896484 66.1193 0.0207606 65.2188 0.321932C64.3184 0.623104 63.4896 1.10852 62.7846 1.74766C62.1656 2.45854 61.6956 3.28794 61.4029 4.18609C61.1102 5.08424 61.001 6.03262 61.0815 6.97433V7.42234H58.7453V11.0005C58.7453 11.5265 58.953 12.031 59.3226 12.4029C59.6922 12.7749 60.1936 12.9838 60.7163 12.9838H61.0803V25.5267C61.0803 26.0527 61.288 26.5572 61.6576 26.9291C62.0272 27.301 62.5285 27.51 63.0512 27.51H68.0899V12.9943H72.5766V7.5425H67.9751V7.05717C67.9775 6.55566 68.1756 6.07518 68.5267 5.71925C68.8778 5.36333 69.3538 5.16045 69.8521 5.15434Z" fill="white"/>
<path d="M84.837 5.15433C85.7746 5.13377 86.709 5.2722 87.6009 5.56383V0.559992C86.1054 0.139143 84.555 -0.0504702 83.0029 -0.00234377C82.0583 -0.0899648 81.1059 0.0203053 80.2058 0.3215C79.3056 0.622694 78.4773 1.10828 77.773 1.74766C77.1532 2.45817 76.6826 3.28745 76.3896 4.18566C76.0965 5.08386 75.987 6.03243 76.0675 6.97433V7.42233H73.7279V11.0005C73.7279 11.261 73.7789 11.5189 73.8779 11.7595C73.977 12.0001 74.1222 12.2188 74.3052 12.4029C74.4882 12.5871 74.7055 12.7332 74.9446 12.8329C75.1837 12.9325 75.44 12.9838 75.6988 12.9838H76.0663V25.5267C76.0663 26.0527 76.274 26.5571 76.6436 26.9291C77.0132 27.301 77.5145 27.51 78.0373 27.51H83.077V12.9943H87.5661V7.54249H82.9681V7.05716C82.9683 6.55641 83.1647 6.07592 83.5145 5.71976C83.8643 5.36361 84.3394 5.16047 84.837 5.15433Z" fill="white"/>
<path d="M99.1402 6.87166C92.6859 6.87166 88.0102 11.6865 88.0102 17.4358V17.5105C88.0102 23.2598 92.6477 27.9988 99.0671 27.9988C105.521 27.9988 110.197 23.184 110.197 17.4347V17.3588C110.194 11.6083 105.556 6.87166 99.1402 6.87166ZM103.329 17.5093C103.363 18.0842 103.28 18.66 103.085 19.2014C102.89 19.7429 102.587 20.2385 102.195 20.6578C101.802 21.0771 101.329 21.4113 100.804 21.6399C100.279 21.8685 99.7125 21.9866 99.1402 21.987C98.5612 21.9763 97.9903 21.8494 97.4608 21.6137C96.9312 21.378 96.4538 21.0383 96.0564 20.6145C95.659 20.1908 95.3497 19.6914 95.1466 19.1458C94.9435 18.6001 94.8508 18.0192 94.8737 17.437V17.3623C94.8397 16.787 94.9229 16.2108 95.1182 15.6691C95.3134 15.1273 95.6167 14.6314 96.0093 14.2118C96.4018 13.7921 96.8755 13.4577 97.4011 13.2289C97.9267 13.0001 98.4932 12.8817 99.0659 12.8812C99.6452 12.892 100.217 13.0192 100.746 13.2554C101.276 13.4915 101.754 13.8317 102.151 14.2561C102.548 14.6805 102.857 15.1805 103.059 15.7268C103.262 16.273 103.354 16.8545 103.33 17.437L103.329 17.5093Z" fill="white"/>
<path d="M37.4929 6.97783L31.1755 28.0012H25.985C25.4597 28.0012 24.9483 27.831 24.5265 27.5158C24.1047 27.2007 23.7949 26.7572 23.6431 26.2512L21.3568 18.641L24.8593 6.98366L27.6742 16.345L30.4857 6.98366H37.4929V6.97783Z" fill="white"/>
<path d="M54.8615 9.42782C53.265 7.82132 50.8176 6.96499 47.2177 6.96499C44.4319 6.91543 41.6663 7.449 39.0963 8.53183L39.9682 11.5488C40.1169 12.0524 40.4572 12.4766 40.9151 12.7289C41.3731 12.9813 41.9115 13.0414 42.4133 12.8963C43.6051 12.569 44.8358 12.4072 46.0711 12.4157C48.7782 12.4157 50.0791 13.6127 50.0791 15.6998V16.0405C48.5232 15.5204 46.8944 15.2553 45.2549 15.2553C40.5421 15.2553 37.3909 17.4206 37.3909 21.5996V21.6755C37.3909 25.7075 40.3195 27.909 44.1407 27.909C45.2488 27.9467 46.3515 27.7389 47.3709 27.3002C48.3903 26.8615 49.3014 26.2027 50.0396 25.3703V25.4753C50.0396 26.0013 50.2473 26.5058 50.6169 26.8778C50.9865 27.2497 51.4878 27.4587 52.0105 27.4587H57.0121V15.855C57.0121 13.0118 56.3826 10.9223 54.8615 9.42782ZM48.2809 23.1362C48.1284 23.1686 47.9729 23.1846 47.8171 23.184C47.2878 23.1846 46.7741 23.0042 46.3601 22.6724C45.9462 22.3405 45.6566 21.8769 45.5389 21.3577C45.4213 20.8384 45.4825 20.2943 45.7125 19.8147C45.9426 19.335 46.3278 18.9483 46.805 18.718C47.1032 18.5727 47.4288 18.493 47.7601 18.4841C48.0913 18.4753 48.4206 18.5374 48.7261 18.6665C49.0317 18.7956 49.3064 18.9887 49.5321 19.2328C49.7577 19.477 49.9291 19.7667 50.0349 20.0827C50.1407 20.3987 50.1785 20.7337 50.1457 21.0655C50.1129 21.3973 50.0103 21.7183 49.8447 22.0072C49.6791 22.296 49.4543 22.546 49.1853 22.7407C48.9163 22.9354 48.6091 23.0702 48.2843 23.1362H48.2809Z" fill="white"/>
</g>
<defs>
<clipPath id="clip0_3061_432">
<rect width="110.194" height="28" fill="white"/>
</clipPath>
</defs>
</svg>
